<svg width="580" height="400" xmlns="http://www.w3.org/2000/svg">
 <!-- Created with Method Draw - http://github.com/duopixel/Method-Draw/ -->

 <g>
  <title>background</title>
  <rect fill="#fff" id="canvas_background" height="402" width="582" y="-1" x="-1"/>
  <g display="none" overflow="visible" y="0" x="0" height="100%" width="100%" id="canvasGrid">
   <rect fill="url(#gridpattern)" stroke-width="0" y="0" x="0" height="100%" width="100%"/>
  </g>
 </g>
 <g>
  <title>Layer 1</title>
  <g id="svg_23">
   <g transform="matrix(0.06781657122930085,0,0,0.06781657122930085,0,0) " id="svg_5">
    <g id="svg_6">
     <path fill="#ff55a5" stroke="#fff" id="svg_7" d="m4304.526234,2919.641542l221.857,-221.858c7.811,-7.811 7.811,-20.475 0,-28.285c-7.811,-7.81 -20.475,-7.811 -28.285,0l-221.858,221.858l-221.857,-221.858c-7.811,-7.811 -20.475,-7.811 -28.285,0c-7.81,7.811 -7.811,20.475 0,28.285l221.857,221.857l-221.857,221.858c-7.811,7.811 -7.811,20.475 0,28.285c3.905,3.905 9.024,5.857 14.143,5.857c5.119,0 10.237,-1.952 14.143,-5.857l221.856,-221.857l221.857,221.857c3.905,3.905 9.024,5.857 14.143,5.857s10.237,-1.952 14.143,-5.857c7.811,-7.811 7.811,-20.475 0,-28.285l-221.857,-221.857z"/>
    </g>
   </g>
   <g transform="matrix(0.06781657122930085,0,0,0.06781657122930085,0,0) " id="svg_8"/>
   <g transform="matrix(0.06781657122930085,0,0,0.06781657122930085,0,0) " id="svg_9"/>
   <g transform="matrix(0.06781657122930085,0,0,0.06781657122930085,0,0) " id="svg_10"/>
   <g transform="matrix(0.06781657122930085,0,0,0.06781657122930085,0,0) " id="svg_11"/>
   <g transform="matrix(0.06781657122930085,0,0,0.06781657122930085,0,0) " id="svg_12"/>
   <g transform="matrix(0.06781657122930085,0,0,0.06781657122930085,0,0) " id="svg_13"/>
   <g transform="matrix(0.06781657122930085,0,0,0.06781657122930085,0,0) " id="svg_14"/>
   <g transform="matrix(0.06781657122930085,0,0,0.06781657122930085,0,0) " id="svg_15"/>
   <g transform="matrix(0.06781657122930085,0,0,0.06781657122930085,0,0) " id="svg_16"/>
   <g transform="matrix(0.06781657122930085,0,0,0.06781657122930085,0,0) " id="svg_17"/>
   <g transform="matrix(0.06781657122930085,0,0,0.06781657122930085,0,0) " id="svg_18"/>
   <g transform="matrix(0.06781657122930085,0,0,0.06781657122930085,0,0) " id="svg_19"/>
   <g transform="matrix(0.06781657122930085,0,0,0.06781657122930085,0,0) " id="svg_20"/>
   <g transform="matrix(0.06781657122930085,0,0,0.06781657122930085,0,0) " id="svg_21"/>
   <g transform="matrix(0.06781657122930085,0,0,0.06781657122930085,0,0) " id="svg_22"/>
  </g>
 </g>
</svg>