<?xml version="1.0" encoding="utf-8"?>
<!-- Generator: Adobe Illustrator 21.1.0, SVG Export Plug-In . SVG Version: 6.00 Build 0)  -->
<svg version="1.1" id="Layer_1" xmlns="http://www.w3.org/2000/svg" xmlns:xlink="http://www.w3.org/1999/xlink" x="0px" y="0px"
	 viewBox="0 0 44.3 40" style="enable-background:new 0 0 44.3 40;" xml:space="preserve">
<style type="text/css">
	.st0{fill:#12AD2A;}
	.st1{fill:#FFFFFF;}
</style>
<circle class="st0" cx="22.4" cy="20" r="19.1"/>
<path class="st1" d="M8.3,11.8c1.2-0.2,2.8-0.3,5.1-0.3c2.3,0,4,0.4,5.1,1.3c1.1,0.8,1.8,2.2,1.8,3.9c0,1.6-0.5,3.1-1.5,4
	c-1.3,1.2-3.2,1.8-5.5,1.8c-0.5,0-0.9,0-1.3-0.1v6H8.3V11.8z M12.1,19.4c0.3,0.1,0.7,0.1,1.3,0.1c2,0,3.3-1,3.3-2.7
	c0-1.5-1.1-2.5-3-2.5c-0.7,0-1.3,0-1.5,0.1V19.4z"/>
<path class="st1" d="M36.4,27.6c-1.2,0.4-3.4,0.9-5.6,0.9c-3.1,0-5.3-0.8-6.8-2.2c-1.5-1.5-2.4-3.7-2.4-6.1c0-5.6,4.1-8.8,9.6-8.8
	c2.2,0,3.8,0.4,4.7,0.8L35,15.3c-0.9-0.4-2-0.7-3.9-0.7c-3.2,0-5.6,1.8-5.6,5.4c0,3.5,2.2,5.5,5.3,5.5c0.8,0,1.5-0.1,1.8-0.2v-3.5
	h-2.6v-3h6.3V27.6z"/>
</svg>
