<?xml version="1.0" encoding="utf-8"?>
<!-- Generator: Adobe Illustrator 21.1.0, SVG Export Plug-In . SVG Version: 6.00 Build 0)  -->
<svg version="1.1" id="Layer_1" xmlns="http://www.w3.org/2000/svg" xmlns:xlink="http://www.w3.org/1999/xlink" x="0px" y="0px"
	 viewBox="0 0 44.3 40" style="enable-background:new 0 0 44.3 40;" xml:space="preserve">
<style type="text/css">
	.st0{fill:#12AD2A;}
	.st1{fill:#FFFFFF;}
</style>
<circle class="st0" cx="22.1" cy="20" r="19.1"/>
<path class="st1" d="M12.1,5.9c0.8-0.1,1.9-0.2,3.4-0.2c1.6,0,2.7,0.3,3.4,0.9c0.7,0.6,1.2,1.5,1.2,2.6c0,1.1-0.3,2-1,2.7
	c-0.9,0.8-2.1,1.2-3.6,1.2c-0.3,0-0.6,0-0.9-0.1v4h-2.5V5.9z M14.6,10.9c0.2,0,0.5,0.1,0.8,0.1c1.3,0,2.2-0.7,2.2-1.8
	c0-1-0.7-1.6-2-1.6c-0.5,0-0.8,0-1,0.1V10.9z"/>
<path class="st1" d="M31.3,16.4c-0.8,0.3-2.3,0.6-3.7,0.6c-2,0-3.5-0.5-4.6-1.5c-1-1-1.6-2.4-1.6-4.1c0-3.7,2.7-5.8,6.4-5.8
	c1.4,0,2.6,0.3,3.1,0.5l-0.5,2c-0.6-0.3-1.4-0.5-2.6-0.5c-2.1,0-3.7,1.2-3.7,3.6c0,2.3,1.5,3.7,3.5,3.7c0.6,0,1-0.1,1.2-0.1v-2.4
	h-1.7v-2h4.2V16.4z"/>
<path class="st1" d="M14.7,22.3L14.7,22.3l-3.2,1.5L10.9,21l4.4-2h3.1v16.3h-3.7V22.3z"/>
<path class="st1" d="M21.9,31.5c0.7,0.4,2.3,1,3.8,1c2,0,3-1,3-2.2c0-1.6-1.6-2.4-3.3-2.4h-1.6v-2.7h1.5c1.3,0,2.9-0.5,2.9-1.9
	c0-1-0.8-1.7-2.4-1.7c-1.3,0-2.8,0.6-3.4,1l-0.8-2.8c1-0.6,2.9-1.2,5.1-1.2c3.5,0,5.4,1.8,5.4,4.1c0,1.7-1,3.1-3,3.8v0.1
	c2,0.4,3.6,1.8,3.6,4c0,2.9-2.6,5-6.7,5c-2.1,0-3.9-0.6-4.9-1.1L21.9,31.5z"/>
</svg>
