<svg height="457.14286pt" viewBox="0 0 457.14286 457.14286" width="457.14286pt" xmlns="http://www.w3.org/2000/svg"><path d="m432.554688 166.742188h-55.035157l-119.667969-122.488282c1.726563-3.933594 2.71875-8.140625 2.71875-12.539062 0-17.492188-14.355468-31.714844-32-31.714844-17.640624 0-32 14.222656-32 31.714844 0 4.394531.996094 8.601562 2.722657 12.535156l-119.667969 122.492188h-55.035156c-13.5625 0-24.589844 11.027343-24.589844 24.589843v241.222657c0 13.5625 11.027344 24.589843 24.589844 24.589843h407.964844c13.5625 0 24.589843-11.027343 24.589843-24.589843v-241.222657c0-13.5625-11.027343-24.589843-24.589843-24.589843zm-203.984376-148.457032c7.5625 0 13.714844 6.027344 13.714844 13.429688 0 3.0625-.992187 5.847656-2.929687 8.265625-5.25 6.554687-16.328125 6.546875-21.5625.011719-1.945313-2.429688-2.9375-5.214844-2.9375-8.277344 0-7.402344 6.152343-13.429688 13.714843-13.429688zm-17.304687 39.875c5.113281 3.300782 11.019531 5.269532 17.304687 5.269532 6.285157 0 12.191407-1.96875 17.308594-5.269532l106.078125 108.582032h-246.769531zm227.589844 374.394532c0 3.472656-2.828125 6.300781-6.300781 6.300781h-407.964844c-3.472656 0-6.304688-2.828125-6.304688-6.300781v-241.222657c0-3.476562 2.832032-6.304687 6.304688-6.304687h407.964844c3.472656 0 6.300781 2.828125 6.300781 6.304687zm0 0"/><path d="m111.410156 314.769531v-.460937c10.839844-3.667969 19.390625-12.664063 19.390625-26.265625 0-7.929688-2.894531-14.953125-8.089843-19.539063-6.414063-5.792968-15.578126-8.390625-29.773438-8.390625-9.160156 0-18.769531.757813-25.492188 2.136719v101.519531h13.285157v-44.574219h12.519531c12.054688.457032 17.550781 5.804688 20.609375 20 2.894531 12.816407 5.183594 21.675782 6.875 24.574219h13.734375c-2.140625-3.964843-4.585938-13.898437-7.945312-28.242187-2.433594-10.691406-7.171876-18.011719-15.113282-20.757813zm-17.09375-5.65625h-13.585937v-37.550781c2.140625-.609375 6.714843-1.21875 13.128906-1.21875 14.046875.148438 23.667969 5.953125 23.667969 19.230469 0 11.757812-9.015625 19.539062-23.210938 19.539062zm0 0"/><path d="m162.910156 315.527344h40v-10.988282h-40v-32.519531h42.285156v-11.148437h-55.574218v102.898437h57.863281v-11.152343h-44.574219zm0 0"/><path d="m289.5 303.929688c0 16.023437.296875 28.539062 1.515625 42.289062l-.300781.148438c-4.882813-10.527344-10.835938-21.367188-18.46875-33.4375l-32.976563-52.058594h-14.507812v102.898437h12.515625v-43.964843c0-17.09375-.296875-29.460938-1.066406-42.4375l.457031-.152344c5.199219 11.140625 12.070312 22.898437 19.242187 34.347656l32.667969 52.207031h13.4375v-102.898437h-12.515625zm0 0"/><path d="m313.527344 272.167969h31.285156v91.601562h13.4375v-91.601562h31.449219v-11.296875h-76.171875zm0 0"/></svg>