<?xml version="1.0" encoding="utf-8"?>
<!-- Generator: Adobe Illustrator 21.1.0, SVG Export Plug-In . SVG Version: 6.00 Build 0)  -->
<svg version="1.1" id="Layer_1" xmlns="http://www.w3.org/2000/svg" xmlns:xlink="http://www.w3.org/1999/xlink" x="0px" y="0px"
	 viewBox="0 0 99.6 40" style="enable-background:new 0 0 99.6 40;" xml:space="preserve">
<style type="text/css">
	.st0{fill:#FF5A00;}
	.st1{fill:#FFFFFF;}
</style>
<path class="st0" d="M11.8,0.8c0,0-6.7,0-6.7,6.7v25c0,0,0,6.7,6.7,6.7h75.5c0,0,6.7,0,6.7-6.7v-25c0,0,0-6.7-6.7-6.7H11.8z"/>
<path class="st1" d="M68.7,31.3h4.9V9.6h-4.2l-5.8,2.7l0.8,3.8l4.1-2h0.1V31.3z M60.8,31.3v-4.2h-8.2v-0.1l2-1.7
	c3.2-2.8,5.8-5.7,5.8-9.4c0-3.9-2.7-6.8-7.6-6.8c-2.9,0-5.5,1-7.1,2.2l1.4,3.6c1.1-0.8,2.8-1.8,4.6-1.8c2.5,0,3.5,1.4,3.5,3.2
	c0,2.5-2.3,5-7.1,9.3l-2.8,2.5v3.1H60.8z M30.5,12.6c0.4-0.1,1.1-0.2,2.3-0.2c2.3,0,3.7,1.1,3.7,3.1c0,2-1.5,3.2-4,3.2h-2V12.6z
	 M25.5,31.3h5v-8.9H32c2.1,0,3.1,0.8,3.7,3.6c0.6,2.8,1.2,4.6,1.5,5.2h5.2c-0.4-0.9-1.1-3.8-1.8-6.4c-0.6-2.1-1.4-3.5-3-4.2v-0.1
	c1.9-0.7,4-2.7,4-5.5c0-2.1-0.7-3.6-2.1-4.7c-1.6-1.3-3.9-1.8-7.3-1.8c-2.7,0-5.1,0.2-6.8,0.5V31.3z"/>
</svg>
