<?xml version="1.0" encoding="utf-8"?>
<!-- Generator: Adobe Illustrator 21.1.0, SVG Export Plug-In . SVG Version: 6.00 Build 0)  -->
<svg version="1.1" id="Layer_1" xmlns="http://www.w3.org/2000/svg" xmlns:xlink="http://www.w3.org/1999/xlink" x="0px" y="0px"
	 viewBox="0 0 99.6 40" style="enable-background:new 0 0 99.6 40;" xml:space="preserve">
<style type="text/css">
	.st0{fill:#FF5A00;}
	.st1{fill:#FFFFFF;}
</style>
<path class="st0" d="M87,39.2H10.7c-3.5,0-6.4-2.9-6.4-6.4V7.2c0-3.5,2.9-6.4,6.4-6.4H87c3.5,0,6.4,2.9,6.4,6.4v25.6
	C93.3,36.3,90.5,39.2,87,39.2z"/>
<path class="st1" d="M39.6,22.3c-0.1-2.7-0.2-6-0.2-9.3h-0.1c-0.7,2.9-1.7,6.1-2.6,8.8L34,30.6h-4l-2.4-8.7c-0.7-2.7-1.5-5.9-2-8.9
	h-0.1c-0.1,3.1-0.2,6.5-0.4,9.4L24.7,31h-4.7l1.4-22.6h6.8l2.2,7.6c0.7,2.6,1.4,5.4,1.9,8.1h0.1c0.6-2.6,1.4-5.6,2.1-8.1L37,8.3h6.7
	L44.9,31h-5L39.6,22.3z"/>
<path class="st1" d="M52.7,13.8L52.7,13.8l-4.3,2L47.6,12l5.9-2.7h4.2v22h-5V13.8z"/>
<path class="st1" d="M65,19.8c-2.1-1.1-3.2-2.9-3.2-4.8c0-3.7,3.4-6.1,7.8-6.1c5.1,0,7.3,2.9,7.3,5.6c0,1.9-1,3.7-3.2,4.8v0.1
	c2.2,0.8,4.1,2.6,4.1,5.4c0,4-3.4,6.6-8.5,6.6c-5.6,0-8.2-3.1-8.2-6.1C61.1,22.7,62.6,20.9,65,19.8L65,19.8z M72.5,25.1
	c0-1.9-1.5-3-3.5-3.6c-1.7,0.5-2.7,1.7-2.7,3.2c0,1.6,1.2,3,3.1,3C71.2,27.9,72.5,26.7,72.5,25.1z M66.7,14.8c0,1.5,1.3,2.4,3.1,2.9
	C71,17.4,72,16.4,72,15c0-1.4-0.8-2.7-2.7-2.7C67.6,12.3,66.7,13.5,66.7,14.8z"/>
</svg>
