<?xml version="1.0" encoding="utf-8"?>
<!-- Generator: Adobe Illustrator 21.1.0, SVG Export Plug-In . SVG Version: 6.00 Build 0)  -->
<svg version="1.1" id="Layer_1" xmlns="http://www.w3.org/2000/svg" xmlns:xlink="http://www.w3.org/1999/xlink" x="0px" y="0px"
	 viewBox="0 0 99.6 40" style="enable-background:new 0 0 99.6 40;" xml:space="preserve">
<style type="text/css">
	.st0{fill:#FF5A00;}
	.st1{fill:#FFFFFF;}
</style>
<path class="st0" d="M11.4,0.8c0,0-6.7,0-6.7,6.7v24.9c0,0,0,6.7,6.7,6.7h75.4c0,0,6.7,0,6.7-6.7V7.5c0,0,0-6.7-6.7-6.7H11.4z"/>
<path class="st1" d="M76.6,27.9c-2.3,0-3.4-2.1-3.5-4.4c0-0.6,0.1-1,0.2-1.3c0.5-1.1,1.6-1.9,3-1.9c2.2,0,3.2,1.7,3.2,3.7
	C79.5,26.2,78.4,27.9,76.6,27.9L76.6,27.9z M82.3,9.2c-0.5,0-1.1-0.1-2,0c-3.4,0.2-6.2,1.2-8.3,3.2C69.5,14.6,68,18,68,22.1
	c0,5.2,2.8,9.5,8.6,9.5c4.7,0,8-3.5,8-7.8c0-4.5-3.1-7.1-6.7-7.1c-2,0-3.5,0.6-4.6,1.7h-0.1c0.6-2.5,2.6-4.8,7.1-5.2
	c0.8-0.1,1.4-0.1,2-0.1V9.2z M59.7,31.2h4.9V9.5h-4.2l-5.8,2.7l0.8,3.8l4.1-2h0.1V31.2z M51.6,26.6c-1,0.4-2.7,0.7-4.3,0.7
	c-4.5,0-7.2-2.8-7.2-7.3c0-5,3.1-7.4,7.1-7.4c1.8,0,3.3,0.4,4.3,0.8l1.1-4c-0.9-0.4-2.9-1-5.5-1c-6.8,0-12.3,4.2-12.3,11.9
	c0,6.4,4,11.3,11.8,11.3c2.7,0,4.8-0.5,5.7-1L51.6,26.6z M18.3,31.2v-6.8c0-3.7-0.1-6.8-0.2-9.9h0.1c1.1,2.6,2.6,5.5,3.9,7.9
	l4.8,8.7h5.3V8.7h-4.7v6.5c0,3.4,0.1,6.4,0.4,9.4h-0.1c-1-2.5-2.3-5.3-3.7-7.7l-4.7-8.2h-5.9v22.5H18.3z"/>
</svg>
